<mxfile host="app.diagrams.net" agent="Mozilla/5.0 (Windows NT 10.0; Win64; x64) AppleWebKit/537.36 (KHTML, like Gecko) Chrome/133.0.0.0 Safari/537.36" version="26.0.15">
  <diagram name="Page-1" id="cU3oyq0o71LkBGWJJGAr">
    <mxGraphModel dx="875" dy="497" grid="1" gridSize="10" guides="1" tooltips="1" connect="1" arrows="1" fold="1" page="1" pageScale="1" pageWidth="850" pageHeight="1100" math="0" shadow="0">
      <root>
        <mxCell id="0" />
        <mxCell id="1" parent="0" />
        <mxCell id="6PADbZox7RcbuZ7REQ1S-1" value="" style="swimlane;whiteSpace=wrap;html=1;startSize=80;" vertex="1" parent="1">
          <mxGeometry x="30" y="150" width="150" height="180" as="geometry" />
        </mxCell>
        <mxCell id="6PADbZox7RcbuZ7REQ1S-2" value="" style="sketch=0;outlineConnect=0;fontColor=#232F3E;gradientColor=none;fillColor=#232F3D;strokeColor=none;dashed=0;verticalLabelPosition=bottom;verticalAlign=top;align=center;html=1;fontSize=12;fontStyle=0;aspect=fixed;pointerEvents=1;shape=mxgraph.aws4.user;" vertex="1" parent="6PADbZox7RcbuZ7REQ1S-1">
          <mxGeometry x="50" y="20" width="50" height="50" as="geometry" />
        </mxCell>
        <mxCell id="6PADbZox7RcbuZ7REQ1S-3" value="" style="fontColor=#0066CC;verticalAlign=top;verticalLabelPosition=bottom;labelPosition=center;align=center;html=1;outlineConnect=0;fillColor=#CCCCCC;strokeColor=#6881B3;gradientColor=none;gradientDirection=north;strokeWidth=2;shape=mxgraph.networks.pc;" vertex="1" parent="6PADbZox7RcbuZ7REQ1S-1">
          <mxGeometry x="20" y="100" width="71.43" height="50" as="geometry" />
        </mxCell>
        <mxCell id="6PADbZox7RcbuZ7REQ1S-5" value="" style="sketch=0;verticalLabelPosition=bottom;sketch=0;aspect=fixed;html=1;verticalAlign=top;strokeColor=none;fillColor=#000000;align=center;outlineConnect=0;pointerEvents=1;shape=mxgraph.citrix2.mobile;" vertex="1" parent="6PADbZox7RcbuZ7REQ1S-1">
          <mxGeometry x="110" y="97.5" width="27.78" height="55" as="geometry" />
        </mxCell>
        <mxCell id="6PADbZox7RcbuZ7REQ1S-6" value="" style="sketch=0;aspect=fixed;pointerEvents=1;shadow=0;dashed=0;html=1;strokeColor=none;labelPosition=center;verticalLabelPosition=bottom;verticalAlign=top;align=center;fillColor=#00188D;shape=mxgraph.azure.load_balancer_generic;rotation=-90;" vertex="1" parent="1">
          <mxGeometry x="350" y="215" width="37" height="50" as="geometry" />
        </mxCell>
        <mxCell id="6PADbZox7RcbuZ7REQ1S-8" value="XX.XXX.XX.XX" style="text;html=1;align=center;verticalAlign=middle;whiteSpace=wrap;rounded=0;" vertex="1" parent="1">
          <mxGeometry x="325" y="265" width="90" height="30" as="geometry" />
        </mxCell>
        <mxCell id="6PADbZox7RcbuZ7REQ1S-9" value="" style="points=[];aspect=fixed;html=1;align=center;shadow=0;dashed=0;fillColor=#FF6A00;strokeColor=none;shape=mxgraph.alibaba_cloud.dns_domain_name_system;" vertex="1" parent="1">
          <mxGeometry x="253.5" y="110" width="71.15" height="70" as="geometry" />
        </mxCell>
        <mxCell id="6PADbZox7RcbuZ7REQ1S-12" value="" style="endArrow=classic;startArrow=classic;html=1;rounded=0;exitX=1;exitY=0.5;exitDx=0;exitDy=0;entryX=0.063;entryY=0.72;entryDx=0;entryDy=0;entryPerimeter=0;" edge="1" parent="1" source="6PADbZox7RcbuZ7REQ1S-1" target="6PADbZox7RcbuZ7REQ1S-9">
          <mxGeometry width="50" height="50" relative="1" as="geometry">
            <mxPoint x="400" y="330" as="sourcePoint" />
            <mxPoint x="450" y="280" as="targetPoint" />
          </mxGeometry>
        </mxCell>
        <mxCell id="6PADbZox7RcbuZ7REQ1S-13" value="" style="endArrow=classic;startArrow=classic;html=1;rounded=0;exitX=1;exitY=0.5;exitDx=0;exitDy=0;entryX=0.5;entryY=0;entryDx=0;entryDy=0;entryPerimeter=0;" edge="1" parent="1" source="6PADbZox7RcbuZ7REQ1S-1" target="6PADbZox7RcbuZ7REQ1S-6">
          <mxGeometry width="50" height="50" relative="1" as="geometry">
            <mxPoint x="190" y="250" as="sourcePoint" />
            <mxPoint x="270" y="180" as="targetPoint" />
          </mxGeometry>
        </mxCell>
        <mxCell id="6PADbZox7RcbuZ7REQ1S-14" value="example.com" style="text;html=1;align=center;verticalAlign=middle;whiteSpace=wrap;rounded=0;rotation=-45;" vertex="1" parent="1">
          <mxGeometry x="170" y="180" width="90" height="30" as="geometry" />
        </mxCell>
        <mxCell id="6PADbZox7RcbuZ7REQ1S-16" value="" style="verticalLabelPosition=bottom;verticalAlign=top;html=1;shape=mxgraph.basic.rect;fillColor2=none;strokeWidth=1;size=20;indent=5;" vertex="1" parent="1">
          <mxGeometry x="460" y="152.5" width="350" height="175" as="geometry" />
        </mxCell>
        <mxCell id="6PADbZox7RcbuZ7REQ1S-17" value="YY.YYY.YY.YY" style="text;html=1;align=center;verticalAlign=middle;whiteSpace=wrap;rounded=0;" vertex="1" parent="1">
          <mxGeometry x="590" y="335" width="90" height="30" as="geometry" />
        </mxCell>
        <mxCell id="6PADbZox7RcbuZ7REQ1S-20" value="LB" style="text;html=1;align=center;verticalAlign=middle;whiteSpace=wrap;rounded=0;" vertex="1" parent="1">
          <mxGeometry x="350" y="185" width="40" height="30" as="geometry" />
        </mxCell>
        <mxCell id="6PADbZox7RcbuZ7REQ1S-21" value="SRV" style="text;html=1;align=center;verticalAlign=middle;whiteSpace=wrap;rounded=0;" vertex="1" parent="1">
          <mxGeometry x="615" y="120" width="40" height="30" as="geometry" />
        </mxCell>
        <mxCell id="6PADbZox7RcbuZ7REQ1S-22" value="" style="shape=image;verticalLabelPosition=bottom;labelBackgroundColor=default;verticalAlign=top;aspect=fixed;imageAspect=0;image=https://www.svgrepo.com/show/373924/nginx.svg;" vertex="1" parent="1">
          <mxGeometry x="490" y="200" width="80" height="80" as="geometry" />
        </mxCell>
        <mxCell id="6PADbZox7RcbuZ7REQ1S-19" value="" style="edgeStyle=orthogonalEdgeStyle;rounded=0;orthogonalLoop=1;jettySize=auto;html=1;startArrow=classic;startFill=1;entryX=0;entryY=0.5;entryDx=0;entryDy=0;" edge="1" parent="1" source="6PADbZox7RcbuZ7REQ1S-6" target="6PADbZox7RcbuZ7REQ1S-22">
          <mxGeometry relative="1" as="geometry" />
        </mxCell>
        <mxCell id="6PADbZox7RcbuZ7REQ1S-23" value="80:80" style="text;html=1;align=center;verticalAlign=middle;whiteSpace=wrap;rounded=0;" vertex="1" parent="1">
          <mxGeometry x="510" y="280" width="40" height="30" as="geometry" />
        </mxCell>
        <mxCell id="6PADbZox7RcbuZ7REQ1S-25" value="" style="verticalLabelPosition=bottom;verticalAlign=top;html=1;shape=mxgraph.basic.rect;fillColor2=none;strokeWidth=1;size=20;indent=5;" vertex="1" parent="1">
          <mxGeometry x="600" y="177.5" width="190" height="125" as="geometry" />
        </mxCell>
        <mxCell id="6PADbZox7RcbuZ7REQ1S-29" value="" style="edgeStyle=orthogonalEdgeStyle;rounded=0;orthogonalLoop=1;jettySize=auto;html=1;startArrow=classic;startFill=1;" edge="1" parent="1" source="6PADbZox7RcbuZ7REQ1S-28" target="6PADbZox7RcbuZ7REQ1S-22">
          <mxGeometry relative="1" as="geometry" />
        </mxCell>
        <mxCell id="6PADbZox7RcbuZ7REQ1S-34" value="" style="edgeStyle=orthogonalEdgeStyle;rounded=0;orthogonalLoop=1;jettySize=auto;html=1;startArrow=classic;startFill=1;" edge="1" parent="1" source="6PADbZox7RcbuZ7REQ1S-28">
          <mxGeometry relative="1" as="geometry">
            <mxPoint x="720" y="240" as="targetPoint" />
          </mxGeometry>
        </mxCell>
        <mxCell id="6PADbZox7RcbuZ7REQ1S-28" value="" style="verticalLabelPosition=bottom;verticalAlign=top;html=1;shape=mxgraph.basic.polygon;polyCoords=[[0.25,0],[0.75,0],[1,0.25],[1,0.75],[0.75,1],[0.25,1],[0,0.75],[0,0.25]];polyline=0;" vertex="1" parent="1">
          <mxGeometry x="620" y="210" width="60" height="60" as="geometry" />
        </mxCell>
        <mxCell id="6PADbZox7RcbuZ7REQ1S-30" value="&lt;font style=&quot;font-size: 8px;&quot;&gt;CLIENT&lt;/font&gt;" style="text;html=1;align=center;verticalAlign=middle;whiteSpace=wrap;rounded=0;" vertex="1" parent="1">
          <mxGeometry x="630" y="225" width="40" height="30" as="geometry" />
        </mxCell>
        <mxCell id="6PADbZox7RcbuZ7REQ1S-31" value="" style="verticalLabelPosition=bottom;verticalAlign=top;html=1;shape=mxgraph.basic.polygon;polyCoords=[[0.25,0],[0.75,0],[1,0.25],[1,0.75],[0.75,1],[0.25,1],[0,0.75],[0,0.25]];polyline=0;" vertex="1" parent="1">
          <mxGeometry x="720" y="210" width="60" height="60" as="geometry" />
        </mxCell>
        <mxCell id="6PADbZox7RcbuZ7REQ1S-32" value="&lt;font style=&quot;font-size: 8px;&quot;&gt;BACKEND&lt;/font&gt;" style="text;html=1;align=center;verticalAlign=middle;whiteSpace=wrap;rounded=0;" vertex="1" parent="1">
          <mxGeometry x="730" y="225" width="40" height="30" as="geometry" />
        </mxCell>
        <mxCell id="6PADbZox7RcbuZ7REQ1S-36" value="8080" style="text;html=1;align=center;verticalAlign=middle;whiteSpace=wrap;rounded=0;" vertex="1" parent="1">
          <mxGeometry x="630" y="272.5" width="40" height="30" as="geometry" />
        </mxCell>
        <mxCell id="6PADbZox7RcbuZ7REQ1S-37" value="3000" style="text;html=1;align=center;verticalAlign=middle;whiteSpace=wrap;rounded=0;" vertex="1" parent="1">
          <mxGeometry x="730" y="270" width="40" height="30" as="geometry" />
        </mxCell>
      </root>
    </mxGraphModel>
  </diagram>
</mxfile>
